<?xml version="1.0" encoding="utf-8"?>
<!-- Generator: Adobe Illustrator 25.4.1, SVG Export Plug-In . SVG Version: 6.00 Build 0)  -->
<svg version="1.1" id="Layer_1" xmlns="http://www.w3.org/2000/svg" xmlns:xlink="http://www.w3.org/1999/xlink" x="0px" y="0px"
	 viewBox="0 0 792 576" style="enable-background:new 0 0 792 576;" xml:space="preserve">
<style type="text/css">
	.st0{fill:#93F0AA;}
	.st1{fill:#31CBE3;}
	.st2{fill:url(#SVGID_1_);}
</style>
<g>
	<circle class="st0" cx="258.96" cy="235.39" r="13.29"/>
	<circle class="st1" cx="359.3" cy="374.2" r="10.65"/>
	<circle class="st1" cx="448.33" cy="373.79" r="10.65"/>
	<circle class="st1" cx="388.5" cy="374.3" r="10.65"/>
	<path class="st1" d="M524.24,230.09l16.6-9.7l10.21-7.91c0,0,2.94-4.98-1.66-8.81c0,0-9.32,1.53-12.38-3.83
		c-3.06-5.36-0.64-8.17-0.64-8.17l3.32-6.89c0,0,2.2-6.19,2.46-8.11c0.26-1.91,4.28-4.53,4.28-4.53s3.26-1.09,6.48,0.86
		s5.39,7.37,5.39,7.37s2.49,7.12,1.72,13.91c-0.77,6.8-2.17,12.54-2.17,12.54s-3.7,8.97-5.01,11.52c-1.31,2.55-2.65,6.1-4.98,7.95
		s-5.49,2.55-5.49,2.55l-10.18,2.49l-6.61,2.04c0,0-2.11,1.05-3.16-0.26C521.37,231.81,524.24,230.09,524.24,230.09z"/>
	<linearGradient id="SVGID_1_" gradientUnits="userSpaceOnUse" x1="499.8418" y1="309.7945" x2="179.3435" y2="309.7945">
		<stop  offset="0" style="stop-color:#31CBE3"/>
		<stop  offset="0.6655" style="stop-color:#93F0AA"/>
	</linearGradient>
	<path class="st2" d="M552.24,331.49v-47.91c0,0-4.02-21.1-29.53-22.47c0,0-25.28,0.51-28,25.87c-0.17,26.81,0,42.3,0,42.3
		s2.55,10.98-8.6,11.23s-8.77-11.66-8.77-11.66v-43.23c0,0-1.45-24.17-29.28-24c0,0-26.72,0-28.34,25.62
		c0.09,42.47,0.09,42.47,0.09,42.47s1.87,11.66-8.43,10.55c0,0-9.96,0.85-8.6-10.64c0-44.94,0-44.94,0-44.94s-2.3-22.47-29.36-23.4
		c0,0-28.34,0.43-28.34,27.91c0,27.49,0,41.11,0,41.11s2.22,10.3-8.51,10.04c0,0-9.02,0.94-8-11.06c0-42.3,0-42.3,0-42.3
		s-0.17-25.87-30.04-25.79c0,0-27.4,0-27.4,28.6s-0.09,40.94-0.09,40.94s1.11,10.72-11.15,9.53c0,0-9.7,1.19-9.7-9.19
		s0.17-43.83,0.17-43.83s0.89-17.45-18.53-24.21v70.85c0,0,0.23,15.66,18.19,22.64c17.96,6.98,33.02-6.81,33.02-6.81
		s7.06-7.06,7.06-16.34s-0.17-44.77-0.17-44.77s-1.96-9.36,9.19-9.7c11.15-0.34,10.64,7.57,10.64,7.57v45.87
		c0,0-0.59,18.96,21.02,25.36c0,0,16.94,4.6,28.26-10.04c0,0,5.02-5.7,5.19-14.81c0.17-9.11,0.09-45.87,0.09-45.87
		s-1.28-7.06,9.02-7.4c10.3-0.34,10.3,7.23,10.3,7.23v47.15c0,0,1.53,19.23,20.94,23.57c19.4,4.34,28.77-9.45,28.77-9.45
		s5.45-3.66,5.53-18.13c0.09-14.47-0.17-42.38-0.17-42.38s-0.6-7.91,9.45-8.09c10.04-0.17,10.13,7.49,10.13,7.49v45.87
		c0,0-0.26,17.87,19.4,24.17c0,0,13.36,5.36,26.64-5.28c0,0,13.96,11.57,32.09,4C554.54,348.17,552.24,331.49,552.24,331.49z
		 M523.3,340.26c0,0-9.53,1.02-9.53-9.28v-42.22c0-1.3,0.24-2.59,0.76-3.78c0.74-1.69,2.17-3.82,4.87-5.08
		c2.48-1.15,5.38-1.17,7.9-0.11c1.98,0.83,4.26,2.42,5.53,5.46c0.47,1.13,0.68,2.36,0.68,3.59v43.5
		C533.52,332.34,533.77,340.51,523.3,340.26z"/>
</g>
</svg>
