<svg width="230" height="295" viewBox="0 0 230 295" fill="none" xmlns="http://www.w3.org/2000/svg">
<path fill-rule="evenodd" clip-rule="evenodd" d="M157.123 72.9592L115 0L72.877 72.9592C30.2019 89.7663 0 131.356 0 180C0 243.513 51.4872 295 115 295C178.513 295 230 243.513 230 180C230 131.356 199.798 89.7663 157.123 72.9592ZM202 180C202 228.049 163.049 267 115 267C66.9512 267 28 228.049 28 180C28 131.951 66.9512 93 115 93C163.049 93 202 131.951 202 180Z" fill="url(#paint0_linear_105_90)"/>
<g clip-path="url(#clip0_105_90)">
<path d="M114.5 32L101 35.75V57.5L114.5 59L128 57.5V35.75L114.5 32Z" fill="black"/>
<path d="M114.5 59L128 57.5V35.75L114.5 32V59Z" fill="#292F33"/>
<path d="M117.841 42.8803V45.4355L121.012 45.8945V43.415L117.841 42.8803ZM123.091 43.766V46.1953L125.565 46.5538V44.183L123.091 43.766ZM114.5 42.317V44.9518L115.762 45.1348V42.53L114.5 42.317ZM128 44.594L127.596 44.5258V46.8478L128 46.9063V44.594Z" fill="#FFD983"/>
<path d="M101 44.594V46.9063L101.404 46.8478V44.5258L101 44.594ZM113.238 42.53V45.1348L114.5 44.9518V42.317L113.238 42.53ZM103.435 44.183V46.5538L105.91 46.1953V43.766L103.435 44.183ZM107.988 43.415V45.8945L111.159 45.4355V42.8803L107.988 43.415Z" fill="#FFAC33"/>
<path d="M117.042 43.3483V43.3168C117.042 43.001 116.934 42.7445 116.802 42.7445C116.669 42.7445 116.562 43.001 116.562 43.3168V43.3483C116.406 43.511 116.295 43.814 116.295 44.1755C116.295 44.5603 116.417 44.8873 116.59 45.0395C116.638 45.1858 116.712 45.287 116.802 45.287C116.891 45.287 116.965 45.1858 117.013 45.0395C117.186 44.8873 117.308 44.5603 117.308 44.1755C117.307 43.814 117.198 43.511 117.042 43.3483ZM122.291 44.15V44.1185C122.291 43.8028 122.184 43.5463 122.051 43.5463C121.918 43.5463 121.811 43.8028 121.811 44.1185V44.15C121.655 44.3128 121.545 44.6158 121.545 44.9773C121.545 45.362 121.666 45.689 121.839 45.8413C121.887 45.9875 121.962 46.0888 122.051 46.0888C122.14 46.0888 122.214 45.9875 122.262 45.8413C122.436 45.689 122.557 45.362 122.557 44.9773C122.557 44.6165 122.447 44.3135 122.291 44.15ZM126.804 44.9225V44.8933C126.804 44.5985 126.703 44.3593 126.579 44.3593C126.456 44.3593 126.355 44.5985 126.355 44.8933V44.9225C126.21 45.0748 126.107 45.3575 126.107 45.695C126.107 46.0543 126.22 46.3595 126.382 46.502C126.426 46.6385 126.496 46.733 126.579 46.733C126.663 46.733 126.732 46.6385 126.777 46.502C126.938 46.3603 127.052 46.0543 127.052 45.695C127.052 45.3575 126.95 45.0748 126.804 44.9225Z" fill="#FFD983"/>
<path d="M111.958 43.3483V43.3168C111.958 43.001 112.065 42.7445 112.198 42.7445C112.331 42.7445 112.438 43.001 112.438 43.3168V43.3483C112.594 43.511 112.704 43.814 112.704 44.1755C112.704 44.5603 112.583 44.8873 112.41 45.0395C112.362 45.1858 112.287 45.287 112.198 45.287C112.109 45.287 112.035 45.1858 111.987 45.0395C111.814 44.8873 111.692 44.5603 111.692 44.1755C111.693 43.814 111.802 43.511 111.958 43.3483ZM106.709 44.15V44.1185C106.709 43.8028 106.816 43.5463 106.949 43.5463C107.082 43.5463 107.189 43.8028 107.189 44.1185V44.15C107.345 44.3128 107.455 44.6158 107.455 44.9773C107.455 45.362 107.334 45.689 107.16 45.8413C107.112 45.9875 107.038 46.0888 106.949 46.0888C106.86 46.0888 106.786 45.9875 106.738 45.8413C106.564 45.689 106.443 45.362 106.443 44.9773C106.443 44.6165 106.553 44.3135 106.709 44.15ZM102.196 44.9225V44.8933C102.196 44.5985 102.297 44.3593 102.421 44.3593C102.544 44.3593 102.645 44.5985 102.645 44.8933V44.9225C102.79 45.0748 102.893 45.3575 102.893 45.695C102.893 46.0543 102.78 46.3595 102.618 46.502C102.574 46.6385 102.504 46.733 102.421 46.733C102.337 46.733 102.267 46.6378 102.222 46.502C102.061 46.3603 101.947 46.0543 101.947 45.695C101.948 45.3575 102.05 45.0748 102.196 44.9225ZM101 40.3595V42.9845L114.5 40.5335V37.7105L101 40.3595Z" fill="#FFAC33"/>
<path d="M114.5 37.7105V40.5335L128 42.9845V40.3595L114.5 37.7105Z" fill="#FFD983"/>
</g>
<defs>
<linearGradient id="paint0_linear_105_90" x1="115" y1="0" x2="115" y2="295" gradientUnits="userSpaceOnUse">
<stop stop-color="#5AF49A"/>
<stop offset="1" stop-color="#31CCE4"/>
</linearGradient>
<clipPath id="clip0_105_90">
<rect width="27" height="27" fill="white" transform="translate(101 32)"/>
</clipPath>
</defs>
</svg>
