<svg width="12" height="24" viewBox="0 0 12 24" fill="none" xmlns="http://www.w3.org/2000/svg">
<path d="M11.9209 1.50498C11.9206 1.90267 11.7623 2.28395 11.4809 2.56498L3.80895 10.237C3.57673 10.4691 3.39252 10.7448 3.26684 11.0481C3.14117 11.3515 3.07648 11.6766 3.07648 12.005C3.07648 12.3333 3.14117 12.6585 3.26684 12.9618C3.39252 13.2652 3.57673 13.5408 3.80895 13.773L11.4709 21.435C11.7442 21.7179 11.8954 22.0968 11.892 22.4901C11.8885 22.8834 11.7308 23.2596 11.4527 23.5377C11.1746 23.8158 10.7983 23.9736 10.405 23.977C10.0118 23.9804 9.63285 23.8292 9.34995 23.556L1.68795 15.9C0.657711 14.8677 0.0791016 13.4689 0.0791016 12.0105C0.0791016 10.5521 0.657711 9.15325 1.68795 8.12099L9.35995 0.443984C9.56973 0.234068 9.83706 0.0910971 10.1281 0.0331629C10.4192 -0.0247712 10.7209 0.00493497 10.9951 0.118522C11.2692 0.23211 11.5036 0.424474 11.6684 0.671272C11.8332 0.918071 11.9211 1.20821 11.9209 1.50498Z" fill="#5AF49A"/>
</svg>
